<svg width="21" height="20" viewBox="0 0 21 20" fill="none" xmlns="http://www.w3.org/2000/svg">
<path fill-rule="evenodd" clip-rule="evenodd" d="M10.8674 20C5.34071 20 0.860474 15.5228 0.860474 10C0.860474 4.47715 5.34071 0 10.8674 0C16.394 0 20.8743 4.47715 20.8743 10C20.8743 15.5228 16.394 20 10.8674 20ZM17.6071 15.1861C18.7146 13.751 19.3732 11.9524 19.3732 10C19.3732 5.30558 15.565 1.5 10.8674 1.5C6.16971 1.5 2.36151 5.30558 2.36151 10C2.36151 11.9524 3.02019 13.751 4.1276 15.1861C4.71853 13.104 6.24953 11.4169 8.23318 10.6118C7.39439 9.87861 6.86461 8.80113 6.86461 7.6C6.86461 5.39086 8.65671 3.6 10.8674 3.6C13.078 3.6 14.8701 5.39086 14.8701 7.6C14.8701 8.80113 14.3403 9.87861 13.5016 10.6118C15.4852 11.4169 17.0162 13.104 17.6071 15.1861ZM16.3397 16.5075C16.3255 16.3743 16.3064 16.242 16.2827 16.1108C15.812 13.5161 13.5387 11.6 10.8674 11.6C8.2141 11.6 5.95141 13.4908 5.46104 16.0627C5.43303 16.2096 5.41099 16.3579 5.39501 16.5075C6.87414 17.7509 8.78322 18.5 10.8674 18.5C12.9515 18.5 14.8606 17.7509 16.3397 16.5075ZM10.8674 10.1C12.249 10.1 13.3691 8.98071 13.3691 7.6C13.3691 6.21929 12.249 5.1 10.8674 5.1C9.48571 5.1 8.36565 6.21929 8.36565 7.6C8.36565 8.98071 9.48571 10.1 10.8674 10.1Z" fill="#0E2F4B"/>
</svg>
