<svg width="108" height="20" viewBox="0 0 108 20" fill="none" xmlns="http://www.w3.org/2000/svg">
<g clip-path="url(#clip0_35_900)">
<path d="M11.4275 8.34241C10.0505 8.34241 8.93481 9.46167 8.93481 10.8389C8.93481 12.2162 10.0505 13.3355 11.4275 13.3355C12.8002 13.3355 13.9159 12.2159 13.9159 10.8389C13.9159 9.46204 12.8002 8.34241 11.4275 8.34241ZM12.887 12.1568C12.7001 12.3834 12.4654 12.5658 12.1998 12.691C11.9341 12.8161 11.644 12.881 11.3503 12.8808C10.2477 12.8808 9.35771 11.9881 9.35771 10.8816C9.35734 10.5874 9.42184 10.2967 9.54663 10.0302C9.67141 9.76377 9.85341 9.5281 10.0797 9.33999L10.1153 9.31386L10.0263 9.43366C9.80631 9.7638 9.68925 10.1518 9.69 10.5486C9.69 11.6544 10.58 12.5478 11.6826 12.5478C12.0783 12.5483 12.4653 12.4308 12.7939 12.2102L12.9137 12.121L12.887 12.1568Z" fill="#99A2AA"/>
<path d="M36.0045 7.56344C35.2617 6.9869 34.4003 6.66187 33.4999 6.66187C32.7796 6.66187 32.0575 6.88058 31.4387 7.24372C30.8023 7.6181 30.3872 8.14312 30.0104 8.81752C30.0048 8.82748 30.0003 8.83781 29.9947 8.84747V2.78125H27.7784V7.35521C27.2965 6.85505 26.4958 6.67385 25.7062 6.67385C24.9748 6.67385 24.3014 6.85337 23.6862 7.21243C23.0534 7.58328 22.5426 8.13339 22.1539 8.82778C21.7881 9.48668 21.666 9.92567 21.666 10.6291C21.666 11.6618 22.0173 12.793 22.7367 13.6049C23.5495 14.5234 24.5624 14.9826 25.7753 14.9826C26.7506 14.9826 27.6654 14.6682 28.4202 14.0381C28.9838 13.5599 29.4371 12.9409 29.7114 12.3002C29.7866 12.5041 29.8779 12.7017 29.9846 12.891C30.3502 13.5366 30.8595 14.0496 31.5126 14.43C32.1428 14.7934 32.8154 14.9921 33.5305 14.9921C34.1889 14.9921 34.7993 14.8278 35.3622 14.5336C35.5988 14.4071 35.805 14.2427 36.1203 14.0409L36.111 11.8703C35.4296 12.3603 34.9878 12.672 34.5772 12.8041C34.2172 12.9196 33.8373 12.9773 33.4376 12.9772C33.2519 12.9772 33.0267 12.9167 32.7622 12.7956L36.9581 8.51517C36.5923 8.08819 36.2744 7.77094 36.0045 7.56344ZM27.3604 12.3063C26.9137 12.8005 26.371 13.0476 25.7323 13.0476C25.0766 13.0476 24.5281 12.768 24.0869 12.209C23.7618 11.7973 23.5993 11.347 23.5994 10.8583C23.5994 10.3231 23.7648 9.86105 24.0956 9.4723C24.5137 8.9663 25.0506 8.71329 25.7065 8.71329C26.2925 8.71329 26.7858 8.89858 27.1865 9.26917C27.6681 9.72256 27.9089 10.2582 27.9089 10.8761C27.9089 11.4234 27.7261 11.9001 27.3604 12.3063ZM31.6229 11.611C31.4766 11.3054 31.4035 11.0487 31.4036 10.8409C31.4036 10.3281 31.5864 9.85556 31.9521 9.42318C32.3517 8.94443 32.8611 8.70503 33.4802 8.70498C33.6998 8.70498 33.9616 8.75989 34.2655 8.86971L31.6229 11.611Z" fill="#99A2AA"/>
<path d="M11.4157 6.66089C9.11071 6.66089 7.23682 8.53149 7.23682 10.8379C7.23682 13.1442 9.11071 15.0201 11.4157 15.0201C13.7208 15.0201 15.5777 13.1449 15.5777 10.8379C15.5777 8.53082 13.7208 6.66089 11.4157 6.66089ZM11.4157 14.1989C9.55457 14.1989 8.03963 12.6832 8.03963 10.8207C8.03963 8.95828 9.55457 7.4467 11.4157 7.4467C13.2769 7.4467 14.7875 8.95843 14.7875 10.8207C14.7875 12.683 13.2764 14.199 11.4157 14.199V14.1989Z" fill="#99A2AA"/>
<path d="M17.1958 6.8457H16.4965C16.2582 6.8457 16.0642 7.03903 16.0642 7.28342V7.75117C16.0642 7.99533 16.2582 8.19413 16.4965 8.19413H17.1958C17.4337 8.19413 17.6281 7.99541 17.6281 7.75117V7.28342C17.6281 7.03903 17.4337 6.8457 17.1958 6.8457Z" fill="#99A2AA"/>
<path d="M18.6239 4.92213C16.8954 1.97992 13.567 0 9.93639 0C4.46062 0 -0.000366211 4.48097 -0.000366211 10.0026C-0.000366211 15.5243 4.46062 20 9.93639 20C12.5745 20 15.1252 18.9695 16.9035 17.2719C18.5522 17.2214 19.9447 16.4673 20.0116 14.3866V7.08467C20.0116 6.12245 19.4403 5.29658 18.6239 4.92213ZM18.9221 14.3932C18.9221 15.5303 18.0957 16.1123 16.9683 16.1123H5.84184C4.55586 16.1123 3.88146 15.8503 3.88146 14.5011V7.49281C3.88146 6.14948 4.59016 5.55205 5.87614 5.55205H8.30209C8.30209 5.55205 9.05084 4.2821 9.05833 4.27918C9.13403 4.1617 9.32886 3.88099 9.8115 3.88099H12.5608C13.0579 3.88099 13.2393 4.10494 13.336 4.27918C13.3535 4.31055 14.1243 5.55205 14.1243 5.55205H16.9813C18.2622 5.55205 18.9221 6.14941 18.9221 7.49281V14.3932Z" fill="#99A2AA"/>
<path d="M64.4361 4.47998L62.2141 5.27418V6.65937H61.6381V8.88757H62.2141V12.4733C62.2141 13.0207 62.3157 13.4768 62.5189 13.8417C62.9598 14.6306 63.8137 15.0069 64.9166 15.0069C65.2589 15.0069 65.6039 14.9629 66.0975 14.8394V12.7993C65.5329 13.0449 65.2745 13.0471 65.1063 13.0471C64.8973 13.0471 64.726 13.021 64.5925 12.8973C64.4822 12.7975 64.4213 12.6858 64.4098 12.5623L64.4182 12.0322V8.88749H66.1074V6.65907H64.4361V4.47998Z" fill="#99A2AA"/>
<path d="M88.5852 7.22764C87.9991 6.86367 87.3124 6.66443 86.6613 6.66443C85.9993 6.66443 85.4184 6.83769 84.8487 7.14969C84.3006 7.45024 83.8507 7.87456 83.4659 8.42377C82.9775 9.13425 82.75 9.92007 82.75 10.8497C82.75 11.5779 82.9157 12.2857 83.2467 12.9037C83.5885 13.5451 84.0713 14.0535 84.6952 14.4291C85.3029 14.8044 85.9485 15.0097 86.6322 15.0097C87.3159 15.0097 87.9587 14.8075 88.5608 14.4376C89.1682 14.0624 89.651 13.5482 90.0093 12.8952C90.3676 12.2425 90.5465 11.5635 90.5465 10.8239C90.5465 10.1018 90.3783 9.41137 90.0418 8.78728C89.6891 8.13442 89.2035 7.61454 88.5852 7.22764ZM88.1456 12.2368C87.7278 12.7277 87.262 12.9734 86.6434 12.9734C86.139 12.9734 85.6475 12.7944 85.2731 12.4362C84.8284 12.0084 84.606 11.4768 84.6059 10.8413C84.6059 10.2293 84.7958 9.718 85.1756 9.30759C85.5553 8.88559 86.0526 8.69204 86.6333 8.69204C87.1705 8.69204 87.6059 8.85677 87.9749 9.22081C88.4307 9.66572 88.6586 10.1973 88.6585 10.8156C88.6584 11.3645 88.4874 11.8382 88.1456 12.2368Z" fill="#99A2AA"/>
<path d="M51.3168 7.25987C50.7075 6.89733 50.0642 6.71601 49.387 6.71591C48.6988 6.71591 48.0585 6.87122 47.4663 7.18185C46.8963 7.48095 46.4112 7.9039 46.0108 8.45068C45.7142 8.86209 45.4993 9.32653 45.3776 9.81887C45.2214 9.16966 44.9097 8.58034 44.4427 8.05093C43.636 7.12697 42.6231 6.66497 41.4042 6.66492C40.6613 6.66492 39.9707 6.85615 39.3323 7.23861C38.7108 7.61538 38.1114 8.13037 37.7342 8.78365C37.3743 9.40751 37.2139 10.1491 37.22 11.0081L37.229 17.7693H39.4453V14.3716C39.6775 14.5246 39.8575 14.6306 39.9851 14.6894C40.4029 14.9012 40.8963 15.0072 41.4654 15.0074C42.5215 15.0074 43.3551 14.6511 44.1384 13.9389C44.7687 13.3615 45.1794 12.6855 45.3704 11.911C45.4566 12.2611 45.5896 12.5979 45.766 12.9124C46.1213 13.5513 46.6233 14.0577 47.272 14.4315C47.9037 14.8052 48.5751 14.9922 49.2862 14.9923C49.9972 14.9924 50.6656 14.8083 51.2914 14.44C51.923 14.0662 52.4251 13.5541 52.7977 12.9036C53.1704 12.2532 53.3566 11.5599 53.3562 10.8238C53.3562 10.105 53.1813 9.43487 52.8314 8.8133C52.4647 8.16274 51.9598 7.64493 51.3168 7.25987ZM42.8935 12.4296C42.4813 12.8356 41.9621 13.0384 41.37 13.0384C40.8707 13.0384 40.4412 12.8799 40.0465 12.5621C39.5008 12.1203 39.228 11.5523 39.2283 10.8581C39.2283 10.3051 39.4111 9.81965 39.7768 9.4016C40.2003 8.92464 40.714 8.68629 41.3179 8.68654C41.904 8.68654 42.4032 8.87772 42.8154 9.26008C43.2972 9.70774 43.5382 10.2433 43.5383 10.8669C43.5379 11.4793 43.3228 12.0002 42.8932 12.4296H42.8935ZM50.8426 12.2479C50.4084 12.7371 49.8872 12.9817 49.2439 12.9817C48.7197 12.9817 48.2449 12.8032 47.8556 12.4465C47.3932 12.0206 47.162 11.4913 47.162 10.8585C47.162 10.2487 47.3594 9.73953 47.7543 9.33106C48.1492 8.91087 48.6484 8.70079 49.2518 8.70084C49.8104 8.70084 50.2815 8.88204 50.6649 9.24443C51.1391 9.68769 51.376 10.217 51.3757 10.8325C51.3756 11.3791 51.1978 11.8509 50.8423 12.2478L50.8426 12.2479Z" fill="#99A2AA"/>
<path d="M102.261 8.78288C101.909 8.13123 101.424 7.6123 100.807 7.2261C100.223 6.86312 99.5376 6.66455 98.8877 6.66455C98.2274 6.66455 97.6475 6.83728 97.0791 7.14868C96.5325 7.44863 96.0833 7.87242 95.6993 8.41997C95.2121 9.12917 94.9852 9.91333 94.9852 10.8412C94.9852 11.568 95.15 12.2743 95.4806 12.8912C95.8217 13.5309 96.3034 14.0382 96.9257 14.413C97.5322 14.7874 98.1762 14.9926 98.8583 14.9926C99.5404 14.9926 100.182 14.7905 100.783 14.4219C101.389 14.0475 101.87 13.5344 102.228 12.8825C102.585 12.2311 102.764 11.5536 102.764 10.816C102.764 10.0947 102.596 9.40546 102.261 8.78288ZM100.369 12.2421C99.9518 12.732 99.487 12.9774 98.8697 12.9774C98.3664 12.9774 97.8759 12.7987 97.5023 12.4413C97.0585 12.0146 96.8366 11.4841 96.8365 10.8499C96.8365 10.2387 97.026 9.72856 97.405 9.31935C97.7839 8.89834 98.2801 8.68779 98.8596 8.68779C99.3955 8.68779 99.8301 8.86936 100.198 9.23287C100.653 9.67663 100.88 10.2069 100.88 10.8238C100.88 11.3717 100.71 11.8444 100.369 12.242V12.2421Z" fill="#99A2AA"/>
<path d="M105.936 9.98225C105.357 9.74704 105.019 9.56372 104.921 9.43229C104.852 9.32882 104.818 9.22601 104.818 9.12306C104.818 9.00246 104.861 8.89349 104.947 8.79616C105.038 8.69283 105.162 8.64154 105.316 8.64154C105.528 8.64154 105.738 8.71312 105.944 8.85628C106.111 8.97661 106.282 9.17682 106.494 9.52641L107.819 8.27136C107.578 7.87617 107.383 7.62152 107.2 7.43815C106.713 6.95106 106.105 6.70752 105.377 6.70752C104.356 6.70752 103.594 7.1516 103.089 8.03977C102.883 8.40636 102.78 8.80177 102.78 9.22601C102.78 9.73581 102.903 10.1741 103.149 10.5407C103.459 11.005 104.054 11.3459 104.655 11.5638C105.172 11.747 105.473 11.9017 105.559 12.028C105.644 12.1542 105.687 12.2803 105.687 12.4063C105.687 12.5496 105.636 12.6788 105.533 12.7934C105.412 12.9249 105.263 12.9909 105.086 12.9911C104.747 12.9911 104.248 12.7424 103.761 12.0721L102.531 13.5416C102.812 13.9488 103.012 14.1544 103.236 14.3317C103.769 14.7558 104.495 14.9681 105.137 14.9681C105.813 14.9681 106.395 14.7389 106.883 14.2805C107.473 13.7189 107.768 13.0571 107.769 12.295C107.769 11.8539 107.648 11.4355 107.408 11.0399C107.121 10.5753 106.537 10.223 105.936 9.98225Z" fill="#99A2AA"/>
<path d="M93.476 12.8801C93.3655 12.7803 93.3045 12.6685 93.2931 12.5448L93.3018 12.0147V8.88767H94.9759V6.66059H93.3062V4.4353L91.1041 5.29636V6.66059H90.5289V8.88767H91.1041V12.4565C91.1041 13.0035 91.2057 13.4596 91.4088 13.8245C91.85 14.6135 92.7565 15.0076 93.8597 15.0076C94.2021 15.0076 94.4899 14.9284 94.9835 14.8047V12.7674C94.4033 13.0541 94.1581 13.0657 93.9899 13.0657C93.7809 13.0657 93.6096 13.0038 93.476 12.8801Z" fill="#99A2AA"/>
<path d="M61.1052 6.66968H58.8817V14.9892H61.1052V6.66968Z" fill="#99A2AA"/>
<path d="M56.2442 8.64159C56.4563 8.64159 56.6656 8.71317 56.872 8.85633C57.0382 8.97663 57.2274 9.21148 57.4396 9.5609L58.7637 8.30631C58.523 7.91093 58.3108 7.62141 58.1273 7.43777C57.64 6.95069 57.0324 6.70715 56.3044 6.70715C55.2838 6.70715 54.5213 7.15123 54.0169 8.03938C53.8106 8.40627 53.7075 8.80182 53.7075 9.22606C53.7075 9.73585 53.8307 10.1741 54.0772 10.5408C54.3867 11.0053 54.8424 11.3463 55.4444 11.5638C55.9603 11.747 56.2612 11.9018 56.3473 12.028C56.4333 12.1542 56.4763 12.2803 56.4762 12.4063C56.4762 12.5497 56.4247 12.6787 56.3216 12.7933C56.2011 12.9249 56.052 12.9908 55.8742 12.9911C55.536 12.9911 55.1233 12.6558 54.6359 11.9852L53.4066 13.4544C53.6874 13.8614 53.9397 14.1536 54.1634 14.3311C54.6965 14.7554 55.2841 14.9675 55.9262 14.9675C56.6025 14.9675 57.1843 14.7383 57.6716 14.28C58.2621 13.7184 58.5573 13.0565 58.5573 12.2945C58.5573 11.8534 58.437 11.435 58.1964 11.0394C57.9095 10.5752 57.4652 10.2229 56.8636 9.98244C56.2846 9.74723 55.9463 9.56392 55.8487 9.43249C55.7799 9.32901 55.7456 9.22621 55.7456 9.12326C55.7456 9.00266 55.7886 8.89369 55.8746 8.79636C55.9662 8.69293 56.0894 8.64134 56.2442 8.64159Z" fill="#99A2AA"/>
<path d="M60.7193 3.59004C60.5162 3.41842 60.2816 3.33266 60.0153 3.33276C59.7396 3.33276 59.4978 3.41852 59.2899 3.59004C59.0337 3.80105 58.9056 4.0781 58.9055 4.42119C58.9055 4.71526 59.0047 4.97264 59.2029 5.19333C59.4205 5.44323 59.6961 5.56832 60.0298 5.56862C60.3055 5.56862 60.5448 5.47779 60.7478 5.29614C60.9896 5.07565 61.1106 4.79381 61.1106 4.45062C61.1109 4.09759 60.9804 3.81074 60.7193 3.59004Z" fill="#99A2AA"/>
<path d="M80.2652 7.08828C79.8648 6.7823 79.4236 6.62925 78.9418 6.62915C78.6223 6.62915 78.3146 6.69981 78.0187 6.84112C77.8038 6.94146 77.5139 7.0358 77.2119 7.33567V2.76208H74.9863V10.1326C74.8577 9.35804 74.5151 8.66373 73.9731 8.05065C73.1663 7.1267 72.1535 6.65289 70.9345 6.65289C70.1917 6.65289 69.4432 6.76715 68.805 7.14961C68.1835 7.52638 67.56 8.03171 67.1828 8.68454C66.8228 9.3084 66.6436 10.1485 66.6496 11.0075L66.6576 17.7705H68.8772V14.3712C69.1091 14.5242 69.289 14.6301 69.4168 14.689C69.8349 14.9008 70.3393 15.0071 70.9083 15.0071C71.9646 15.0071 72.8846 14.6509 73.6682 13.9386C74.391 13.2763 74.8356 12.4843 74.9861 11.5634V14.9866H77.2117V10.2312C77.2117 9.7016 77.3336 9.30725 77.5775 9.04814C77.8735 8.72468 78.2274 8.6683 78.5758 8.6683C78.7092 8.6683 78.8456 8.71242 78.985 8.80068C79.136 8.89482 79.2753 9.13035 79.4029 9.50727L81.1691 14.9694H83.3368L81.327 8.93305C81.0137 8.00376 80.6598 7.38883 80.2652 7.08828ZM72.3713 12.4296C71.9591 12.8356 71.457 13.0385 70.8651 13.0384C70.3656 13.0384 69.9185 12.8797 69.5239 12.5622C68.9783 12.1204 68.7056 11.5523 68.7057 10.8581C68.7057 10.3052 68.8885 9.81967 69.2542 9.40162C69.6779 8.92467 70.1916 8.68632 70.7954 8.68657C71.3817 8.68657 71.8809 8.87775 72.293 9.26011C72.7748 9.70776 73.0158 10.2434 73.0158 10.8669C73.0156 11.4794 72.8008 12.0003 72.3713 12.4296Z" fill="#99A2AA"/>
</g>
<defs>
<clipPath id="clip0_35_900">
<rect width="107.819" height="20" fill="white"/>
</clipPath>
</defs>
</svg>
