<svg width="20" height="20" viewBox="0 0 20 20" fill="none" xmlns="http://www.w3.org/2000/svg">
<path fill-rule="evenodd" clip-rule="evenodd" d="M1.10306 3.57484e-08H18.896C19.5055 -0.000153422 19.9997 0.493774 20 1.10306V18.896V18.8965C19.9998 19.5061 19.5056 20.0002 18.896 20H1.10397C0.494536 20.0002 0.000304342 19.5062 3.57484e-08 18.8969V1.10397C-0.000153422 0.494536 0.493774 0.000304342 1.10306 3.57484e-08ZM13.8086 12.2656V20H10.6836V12.2656H8.08594V9.23827H10.6836V7.01033C10.6836 4.42671 12.2609 3.02046 14.5656 3.02046C15.6694 3.02046 16.618 3.10271 16.8945 3.13948V5.83983H15.3053C14.0514 5.83983 13.8086 6.43568 13.8086 7.31017V9.23827H16.8066L16.416 12.2656H13.8086Z" fill="#99A2AA"/>
</svg>
