<svg width="20" height="20" viewBox="0 0 20 20" fill="none" xmlns="http://www.w3.org/2000/svg">
<g clip-path="url(#clip0_35_880)">
<path d="M19.9806 5.88005C19.9337 4.81738 19.7619 4.0868 19.5157 3.45374C19.2617 2.78176 18.871 2.18014 18.3592 1.68002C17.859 1.1721 17.2534 0.777435 16.5892 0.527447C15.9525 0.281274 15.2258 0.109427 14.1631 0.0625732C13.0925 0.0117516 12.7526 0 10.0372 0C7.32185 0 6.98197 0.0117516 5.91533 0.0586052C4.85265 0.105459 4.12207 0.277459 3.48917 0.523479C2.81704 0.777435 2.21542 1.16814 1.71529 1.68002C1.20738 2.18014 0.812865 2.78573 0.562725 3.44992C0.316553 4.0868 0.144705 4.81341 0.0978515 5.87609C0.0470299 6.9467 0.0352783 7.28658 0.0352783 10.002C0.0352783 12.7173 0.0470299 13.0572 0.0938835 14.1239C0.140737 15.1865 0.312737 15.9171 0.558909 16.5502C0.812865 17.2221 1.20738 17.8238 1.71529 18.3239C2.21542 18.8318 2.82101 19.2265 3.4852 19.4765C4.12207 19.7226 4.84868 19.8945 5.91151 19.9413C6.978 19.9883 7.31804 19.9999 10.0334 19.9999C12.7488 19.9999 13.0887 19.9883 14.1553 19.9413C15.218 19.8945 15.9486 19.7226 16.5815 19.4765C17.9256 18.9568 18.9882 17.8941 19.5079 16.5502C19.7539 15.9133 19.9259 15.1865 19.9728 14.1239C20.0196 13.0572 20.0314 12.7173 20.0314 10.002C20.0314 7.28658 20.0274 6.9467 19.9806 5.88005ZM18.1795 14.0457C18.1365 15.0225 17.9724 15.5499 17.8357 15.9015C17.4996 16.7728 16.8081 17.4643 15.9368 17.8004C15.5852 17.9372 15.0539 18.1012 14.081 18.1441C13.0261 18.1911 12.7097 18.2027 10.0412 18.2027C7.37267 18.2027 7.05233 18.1911 6.00125 18.1441C5.0245 18.1012 4.49705 17.9372 4.14542 17.8004C3.71184 17.6402 3.31717 17.3862 2.99682 17.0541C2.66473 16.7298 2.41077 16.3391 2.25052 15.9055C2.11378 15.5539 1.94971 15.0225 1.90683 14.0497C1.85982 12.9948 1.84822 12.6783 1.84822 10.0097C1.84822 7.34122 1.85982 7.02087 1.90683 5.96995C1.94971 4.99319 2.11378 4.46575 2.25052 4.11412C2.41077 3.68038 2.66473 3.28586 3.00079 2.96536C3.32495 2.63327 3.71565 2.37931 4.14939 2.21921C4.50102 2.08247 5.03243 1.9184 6.00522 1.87537C7.06011 1.82851 7.37664 1.81676 10.045 1.81676C12.7175 1.81676 13.0339 1.82851 14.0849 1.87537C15.0617 1.9184 15.5891 2.08247 15.9408 2.21921C16.3744 2.37931 16.769 2.63327 17.0894 2.96536C17.4215 3.28967 17.6754 3.68038 17.8357 4.11412C17.9724 4.46575 18.1365 4.99701 18.1795 5.96995C18.2264 7.02484 18.2381 7.34122 18.2381 10.0097C18.2381 12.6783 18.2264 12.9908 18.1795 14.0457Z" fill="#99A2AA"/>
<path d="M10.0371 4.86414C7.20074 4.86414 4.89941 7.16531 4.89941 10.0019C4.89941 12.8384 7.20074 15.1396 10.0371 15.1396C12.8737 15.1396 15.1749 12.8384 15.1749 10.0019C15.1749 7.16531 12.8737 4.86414 10.0371 4.86414ZM10.0371 13.3346C8.19702 13.3346 6.70442 11.8421 6.70442 10.0019C6.70442 8.16159 8.19702 6.66915 10.0371 6.66915C11.8774 6.66915 13.3698 8.16159 13.3698 10.0019C13.3698 11.8421 11.8774 13.3346 10.0371 13.3346Z" fill="#99A2AA"/>
<path d="M16.5778 4.6611C16.5778 5.32346 16.0408 5.86052 15.3783 5.86052C14.7159 5.86052 14.1788 5.32346 14.1788 4.6611C14.1788 3.99858 14.7159 3.46167 15.3783 3.46167C16.0408 3.46167 16.5778 3.99858 16.5778 4.6611Z" fill="#99A2AA"/>
</g>
<defs>
<clipPath id="clip0_35_880">
<rect width="20" height="20" fill="white"/>
</clipPath>
</defs>
</svg>
