<svg width="188" height="50" viewBox="0 0 188 50" fill="none" xmlns="http://www.w3.org/2000/svg">
<path d="M33.5178 28.5527L17.1157 24.8247C12.889 23.8667 9.92564 20.0441 10.039 15.6959C10.1524 11.3477 13.3109 7.68591 17.5817 6.95127C21.8526 6.21663 26.0454 8.61392 27.5944 12.6762C29.1435 16.7384 27.617 21.3333 23.9492 23.6492V23.6492C23.8792 23.7017 23.8453 23.7897 23.8621 23.8758C23.8788 23.9619 23.9433 24.0306 24.0278 24.0527L31.3244 25.7106C31.498 25.751 31.6791 25.6859 31.7876 25.544V25.544C35.3221 20.8575 35.9984 14.5979 33.5469 9.25973C31.0955 3.92154 25.9148 0.372317 20.0693 0.0264089H19.3877C12.5753 -0.0805429 6.27707 3.65137 3.0785 9.69016C-0.120069 15.7289 0.319873 23.0573 4.21772 28.6668L18.811 49.5878C18.8751 49.676 18.9774 49.7282 19.0862 49.7282C19.195 49.7282 19.2973 49.676 19.3615 49.5878L33.7275 29.1054C33.8038 29.0106 33.8241 28.8823 33.7809 28.7685C33.7377 28.6547 33.6375 28.5725 33.5178 28.5527V28.5527Z" fill="#FFC627"/>
<path d="M47.5604 9.80691C47.7016 9.78843 47.8399 9.85784 47.9099 9.98234L52.7772 18.3157H53.0132L57.1465 10.0964C57.2324 9.90172 57.4336 9.78483 57.6445 9.80691H60.6156C60.7282 9.80289 60.8343 9.8596 60.8938 9.95558C60.9534 10.0516 60.9573 10.1722 60.904 10.2718L52.3403 25.4823C52.2425 25.6631 52.046 25.7669 51.8422 25.7455H48.9323C48.609 25.7455 48.5828 25.5437 48.6964 25.3069L50.9946 21.3595L44.1174 10.1841C44.0038 9.98234 44.1174 9.80691 44.2922 9.80691H47.5516H47.5604Z" fill="black"/>
<path d="M66.016 9.80691C66.1287 9.79241 66.2418 9.83115 66.3222 9.91183C66.4025 9.99251 66.4411 10.106 66.4267 10.2192V16.4736L72.9805 10.0438C73.1986 9.87811 73.4676 9.79432 73.7408 9.80691H77.2973C77.5595 9.80691 77.6469 10.0438 77.4459 10.2455L70.4551 16.7981L77.8566 25.3069C77.943 25.374 77.9746 25.4906 77.9341 25.5924C77.8935 25.6943 77.7905 25.7568 77.6818 25.7455H74.1864C73.9128 25.7688 73.6442 25.6616 73.4611 25.456L67.9122 18.8946L66.4092 20.2981V25.342C66.4237 25.4552 66.3851 25.5687 66.3047 25.6494C66.2243 25.73 66.1112 25.7688 65.9985 25.7543H63.4381C63.3254 25.7688 63.2123 25.73 63.1319 25.6494C63.0516 25.5687 63.013 25.4552 63.0274 25.342V10.2017C63.013 10.0885 63.0516 9.97497 63.1319 9.89429C63.2123 9.81361 63.3254 9.77486 63.4381 9.78937H65.9985L66.016 9.80691Z" fill="black"/>
<path fill-rule="evenodd" clip-rule="evenodd" d="M91.8598 11.4025C90.6948 10.3041 89.1351 9.72821 87.5388 9.80691L87.5476 9.78937H80.3471C80.2343 9.77486 80.1213 9.81361 80.0409 9.89429C79.9605 9.97497 79.9219 10.0885 79.9364 10.2017V25.342C79.9219 25.4552 79.9605 25.5687 80.0409 25.6494C80.1213 25.73 80.2343 25.7688 80.3471 25.7543H82.9074C83.0202 25.7688 83.1333 25.73 83.2136 25.6494C83.294 25.5687 83.3326 25.4552 83.3181 25.342V21.5087H87.5388C91.0954 21.5087 93.7169 19.0262 93.7169 15.6315C93.6951 14.0273 93.0248 12.5008 91.8598 11.4025ZM89.53 17.6085C88.9947 18.1123 88.2692 18.3604 87.5388 18.2894H83.3181V13.0262H87.5388C88.2712 12.9462 89.0019 13.1912 89.5394 13.697C90.0769 14.2028 90.3675 14.919 90.3351 15.6578C90.3586 16.394 90.0653 17.1048 89.53 17.6085Z" fill="black"/>
<path d="M109.638 9.80691C109.751 9.79241 109.864 9.83115 109.945 9.91183C110.025 9.99251 110.064 10.106 110.049 10.2192V25.342C110.064 25.4552 110.025 25.5687 109.945 25.6494C109.864 25.73 109.751 25.7688 109.638 25.7543H107.078C106.965 25.7688 106.852 25.73 106.772 25.6494C106.691 25.5687 106.653 25.4552 106.667 25.342V12.9824H99.6154V25.3245C99.6298 25.4376 99.5912 25.5511 99.5108 25.6318C99.4305 25.7125 99.3174 25.7513 99.2046 25.7367H96.6443C96.5315 25.7513 96.4185 25.7125 96.3381 25.6318C96.2577 25.5511 96.2191 25.4376 96.2336 25.3245V10.2017C96.2191 10.0885 96.2577 9.97497 96.3381 9.89429C96.4185 9.81361 96.5315 9.77486 96.6443 9.78937H109.638V9.80691Z" fill="black"/>
<path fill-rule="evenodd" clip-rule="evenodd" d="M129.413 17.8891C129.478 13.3804 125.909 9.66262 121.418 9.56145C119.216 9.51426 117.088 10.3593 115.515 11.9059C113.941 13.4525 113.055 15.5701 113.055 17.7807C113.061 22.2899 116.688 25.9505 121.18 25.9803C125.672 26.01 129.347 22.3978 129.413 17.8891ZM121.44 22.6665C118.725 22.6889 116.502 20.5062 116.463 17.7807C116.399 16.4381 116.898 15.1298 117.84 14.1743C118.782 13.2188 120.08 12.7037 121.418 12.7544C124.133 12.7643 126.331 14.9734 126.337 17.6992C126.343 20.4249 124.156 22.6441 121.44 22.6665Z" fill="black"/>
<path d="M141.071 22.5438V10.2017C141.056 10.0885 141.095 9.97497 141.175 9.89429C141.256 9.81361 141.369 9.77486 141.481 9.78937H143.989C144.102 9.77486 144.215 9.81361 144.295 9.89429C144.376 9.97497 144.414 10.0885 144.4 10.2017V22.5438H149.381V10.2017C149.366 10.0885 149.405 9.97497 149.485 9.89429C149.566 9.81361 149.679 9.77486 149.792 9.78937H152.3C152.412 9.77486 152.525 9.81361 152.606 9.89429C152.686 9.97497 152.725 10.0885 152.71 10.2017V25.3245C152.725 25.4376 152.686 25.5511 152.606 25.6318C152.525 25.7125 152.412 25.7513 152.3 25.7367H133.171C133.061 25.7392 132.956 25.6965 132.878 25.6187C132.8 25.5408 132.758 25.4345 132.76 25.3245V10.2017C132.746 10.0885 132.785 9.97497 132.865 9.89429C132.945 9.81361 133.058 9.77486 133.171 9.78937H135.679C135.792 9.77486 135.905 9.81361 135.985 9.89429C136.066 9.97497 136.104 10.0885 136.09 10.2017V22.5438H141.071V22.5438Z" fill="black"/>
<path d="M168.885 9.80695C168.998 9.79244 169.111 9.83119 169.191 9.91187C169.272 9.99255 169.31 10.1061 169.296 10.2192V12.614C169.31 12.7271 169.272 12.8407 169.191 12.9213C169.111 13.002 168.998 13.0408 168.885 13.0262H163.817V25.307C163.831 25.4201 163.793 25.5336 163.712 25.6143C163.632 25.695 163.519 25.7337 163.406 25.7192H160.846C160.733 25.7337 160.62 25.695 160.54 25.6143C160.459 25.5336 160.421 25.4201 160.435 25.307V13.0262H155.393C155.28 13.0408 155.167 13.002 155.087 12.9213C155.006 12.8407 154.968 12.7271 154.982 12.614V10.2192C154.968 10.1061 155.006 9.99255 155.087 9.91187C155.167 9.83119 155.28 9.79244 155.393 9.80695H168.911H168.885Z" fill="black"/>
<path fill-rule="evenodd" clip-rule="evenodd" d="M173.42 22.579H181.346L182.412 25.3159C182.506 25.5713 182.753 25.7374 183.024 25.7281H185.794C185.909 25.7345 186.019 25.6808 186.085 25.5861C186.151 25.4914 186.163 25.3693 186.117 25.2632L179.564 10.0264C179.505 9.87176 179.352 9.77495 179.188 9.78953H175.867C175.703 9.77495 175.55 9.87176 175.491 10.0264L168.64 25.3246C168.553 25.5878 168.64 25.7369 168.929 25.7369H171.813C172.039 25.7472 172.243 25.603 172.311 25.386L173.42 22.579ZM180.175 19.5088H174.644L177.292 12.9562H177.615L180.175 19.5088Z" fill="black"/>
<path d="M46.3632 39.4035V32.614H50.8373V33.4035H47.2633V39.4473H46.3894L46.3632 39.4035Z" fill="black"/>
<path fill-rule="evenodd" clip-rule="evenodd" d="M55.4075 39.5615C57.5659 39.5615 58.667 37.9299 58.667 35.9299C58.667 33.8948 57.5222 32.4123 55.3988 32.4036C53.4151 32.4036 52.1481 33.7808 52.1481 35.9123C52.1481 37.8948 53.2491 39.5615 55.4075 39.5615ZM55.4163 38.7808C53.9744 38.7808 53.0481 37.6843 53.0481 35.9737L53.0394 35.9825C53.0394 34.5264 53.7909 33.2018 55.3988 33.193C56.8406 33.193 57.7669 34.2808 57.7669 35.9737C57.7669 37.6667 56.8581 38.7808 55.4163 38.7808Z" fill="black"/>
<path d="M65.7014 39.4034H64.8276V33.3596H62.3109L62.1798 37.2017C62.1361 38.5701 61.638 39.5438 60.6069 39.5438C60.3858 39.534 60.1676 39.4896 59.9602 39.4122V38.6491C60.1145 38.7164 60.2814 38.7493 60.4496 38.7455C60.9389 38.7455 61.3234 38.4736 61.3234 36.7455L61.4458 32.5876H65.7189V39.4122L65.7014 39.4034Z" fill="black"/>
<path fill-rule="evenodd" clip-rule="evenodd" d="M71.0755 39.5615C73.2339 39.5615 74.335 37.9299 74.335 35.9299C74.335 33.8948 73.1815 32.4123 71.0668 32.4036C69.0919 32.4036 67.8161 33.7808 67.8161 35.9123C67.8161 37.8948 68.9171 39.5615 71.0755 39.5615ZM71.0843 38.7808C69.6424 38.7808 68.7162 37.6843 68.7162 35.9737V35.9825C68.7162 34.5264 69.4589 33.2018 71.0668 33.193C72.5087 33.193 73.4349 34.2808 73.4349 35.9737C73.4349 37.6667 72.5261 38.7808 71.0843 38.7808Z" fill="black"/>
<path fill-rule="evenodd" clip-rule="evenodd" d="M79.3684 32.614C80.4956 32.614 81.5355 33.0614 81.5355 34.3245C81.5479 34.9786 81.1437 35.5678 80.5306 35.7895C81.3522 35.9484 81.9194 36.7075 81.8413 37.5438C81.8413 39.114 80.5568 39.4737 79.2198 39.4737H76.4148V32.614H79.3684ZM77.341 35.5351H78.9577C79.7266 35.5351 80.6442 35.4737 80.6442 34.4561C80.6442 33.4386 79.849 33.3859 79.045 33.3859H77.341V35.5351ZM77.3498 38.6754H77.341L77.3498 38.6842V38.6754ZM77.3498 38.6754H79.1412C80.015 38.6754 80.9413 38.614 80.9413 37.421C80.9413 36.2451 79.9309 36.2453 79.0316 36.2456C79.0186 36.2456 79.0056 36.2456 78.9926 36.2456H77.3498V38.6754Z" fill="black"/>
<path d="M89.3739 39.4035H88.5001V36.2105H84.9085V39.4035H84.0347V32.614H84.9085V35.4649H88.5001V32.614H89.3739V39.4386V39.4035Z" fill="black"/>
<path fill-rule="evenodd" clip-rule="evenodd" d="M96.5656 39.4034H97.5706L94.9141 32.5789H93.9004L91.2264 39.4034H92.1789L92.9567 37.3157H95.8141L96.5656 39.4034ZM93.2101 36.5964L94.3898 33.4385L95.5432 36.5964H93.2101Z" fill="black"/>
<path d="M108.651 39.4035H107.777V33.3596H104.186V39.4035H103.312V32.614H108.703V39.4386L108.651 39.4035Z" fill="black"/>
<path fill-rule="evenodd" clip-rule="evenodd" d="M114.043 39.5615C116.201 39.5615 117.302 37.9299 117.302 35.9299C117.302 33.8948 116.149 32.4123 114.034 32.4036C112.05 32.4036 110.783 33.7808 110.783 35.9123C110.783 37.8948 111.884 39.5615 114.043 39.5615ZM114.051 38.7808C112.609 38.7808 111.683 37.6843 111.683 35.9737L111.701 35.9825C111.701 34.5264 112.426 33.2018 114.034 33.193C115.476 33.193 116.402 34.2808 116.402 35.9737C116.402 37.6667 115.493 38.7808 114.051 38.7808Z" fill="black"/>
<path d="M119.417 32.614H120.291V38.6579H123.314V32.614H124.188V38.6579H127.211V32.614H128.085V39.4386H119.347V32.614H119.417Z" fill="black"/>
<path d="M135.53 33.3596H133.25V39.4035H132.376V33.3596H130.051V32.614H135.522V33.4035L135.53 33.3596Z" fill="black"/>
<path fill-rule="evenodd" clip-rule="evenodd" d="M141.193 39.4035H142.198L139.541 32.614H138.528L135.854 39.4035H136.806L137.584 37.3158H140.441L141.193 39.4035ZM137.837 36.5965L139.017 33.4386L140.171 36.5965H137.837Z" fill="black"/>
<path d="M150.543 35.3158L153.523 39.4035H152.378L149.914 35.8947L148.787 37V39.3947H147.913V32.614H148.787V36L152.238 32.614H153.418L150.543 35.3158Z" fill="black"/>
<path fill-rule="evenodd" clip-rule="evenodd" d="M160.487 34.5789C160.487 33.1579 159.526 32.614 158.224 32.614H155.445V39.4386H156.319V36.6403H158.163C159.491 36.6403 160.487 36 160.487 34.5789ZM158.067 35.8859H156.337V33.3947H157.945C158.827 33.3947 159.605 33.6316 159.605 34.6403C159.605 35.6491 158.941 35.8859 158.067 35.8859Z" fill="black"/>
<path fill-rule="evenodd" clip-rule="evenodd" d="M166.622 39.4034H167.627L165.005 32.5789H163.965L161.291 39.4034H162.244L163.022 37.3157H165.879L166.622 39.4034ZM163.266 36.5964L164.446 33.4385L165.599 36.5964H163.266Z" fill="black"/>
<path fill-rule="evenodd" clip-rule="evenodd" d="M169.497 31.9913H168.623V31.0264H169.497V31.9913ZM170.414 39.4036H169.541V32.6141H170.414V39.4036ZM170.414 31.9913H171.288V31.0264H170.414V31.9913Z" fill="black"/>
<path d="M178.296 39.4035H177.423V36.2105H173.831V39.4035H172.957V32.614H173.831V35.4649H177.423V32.614H178.296V39.4386V39.4035Z" fill="black"/>
<path d="M180.734 32.614H181.608V38.3947V38.3947L184.946 32.614H186.082V39.4386H185.209V33.6403V33.6403L181.862 39.4386H180.734V32.614Z" fill="black"/>
</svg>
