<svg width="17" height="16" viewBox="0 0 17 16" fill="none" xmlns="http://www.w3.org/2000/svg">
<path fill-rule="evenodd" clip-rule="evenodd" d="M12.065 10.0623H11.3381L11.0855 9.81167C11.978 8.7716 12.5209 7.42325 12.5209 5.94592C12.5209 2.66194 9.85694 0 6.5705 0C3.28406 0 0.620117 2.66194 0.620117 5.94592C0.620117 9.22989 3.28406 11.8918 6.5705 11.8918C8.04894 11.8918 9.39739 11.3503 10.4382 10.4593L10.6909 10.71V11.4345L15.2663 16L16.6312 14.6361L12.065 10.0623ZM6.57053 10.0623C4.29474 10.0623 2.45105 8.22 2.45105 5.94592C2.45105 3.67275 4.29474 1.82951 6.57053 1.82951C8.84539 1.82951 10.69 3.67275 10.69 5.94592C10.69 8.22 8.84539 10.0623 6.57053 10.0623Z" fill="#99A2AA"/>
</svg>
