<svg width="20" height="20" viewBox="0 0 20 20" fill="none" xmlns="http://www.w3.org/2000/svg">
<g clip-path="url(#clip0_35_884)">
<path d="M19.2957 11.5775C19.8923 6.55502 19.009 3.38419 17.4157 1.95002L17.4165 1.94919C14.8448 -0.499979 6.15982 -0.86248 3.08316 2.05919C1.70149 3.48835 1.21482 5.58585 1.16149 8.18252C1.10816 10.78 1.04482 15.6459 5.57899 16.9659H5.58315L5.57899 18.9817C5.57899 18.9817 5.54815 19.7984 6.06982 19.9625C6.66649 20.1559 6.93649 19.7767 8.79232 17.56C11.8957 17.8292 14.279 17.2125 14.5498 17.1225C15.1765 16.9125 18.7223 16.4434 19.2957 11.5775ZM9.09816 16.1417C9.09816 16.1417 7.13399 18.5909 6.52316 19.2267C6.32315 19.4334 6.10399 19.4142 6.10732 19.0042C6.10732 18.735 6.12232 15.6575 6.12232 15.6575C2.27816 14.5559 2.50482 10.4125 2.54649 8.24502C2.58816 6.07669 2.98482 4.30085 4.15482 3.10502C6.85399 0.574187 14.4682 1.14002 16.4082 2.96335C18.7798 5.06585 17.9357 11.0059 17.9407 11.2084C17.4532 15.27 14.5798 15.5275 14.0515 15.7034C13.8257 15.7784 11.7298 16.3175 9.09816 16.1417Z" fill="#99A2AA"/>
<path d="M10.1848 3.58081C9.86401 3.58081 9.86401 4.08081 10.1848 4.08498C12.674 4.10414 14.724 5.83914 14.7465 9.02165C14.7465 9.35748 15.2382 9.35331 15.234 9.01748H15.2332C15.2065 5.58831 12.9682 3.59998 10.1848 3.58081Z" fill="#99A2AA"/>
<path d="M13.4592 8.49432C13.4517 8.82599 13.9425 8.84182 13.9467 8.50599C13.9875 6.61515 12.8217 5.05765 10.6309 4.89349C10.31 4.87015 10.2767 5.37432 10.5967 5.39765C12.4967 5.54182 13.4975 6.83849 13.4592 8.49432Z" fill="#99A2AA"/>
<path d="M12.9343 10.645C12.5226 10.4067 12.1034 10.555 11.9301 10.7892L11.5676 11.2583C11.3834 11.4967 11.0393 11.465 11.0393 11.465C8.52759 10.8008 7.85593 8.17251 7.85593 8.17251C7.85593 8.17251 7.82509 7.81667 8.05509 7.62584L8.50843 7.25084C8.73509 7.07084 8.87843 6.63751 8.64759 6.21167C8.03093 5.09751 7.61676 4.71334 7.40593 4.41834C7.18426 4.14084 6.85093 4.07834 6.50426 4.26584H6.49676C5.77593 4.68751 4.98676 5.47667 5.23926 6.28917C5.6701 7.14584 6.46176 9.87667 8.98509 11.94C10.1709 12.9158 12.0476 13.9158 12.8443 14.1467L12.8518 14.1583C13.6368 14.42 14.4001 13.6 14.8076 12.8575V12.8517C14.9884 12.4925 14.9284 12.1525 14.6643 11.93C14.1959 11.4733 13.4893 10.9692 12.9343 10.645Z" fill="#99A2AA"/>
<path d="M10.9741 6.75348C11.775 6.80015 12.1633 7.21848 12.205 8.07765C12.22 8.41348 12.7075 8.39015 12.6925 8.05432C12.6391 6.93265 12.0541 6.30765 11.0008 6.24931C10.68 6.23015 10.65 6.73431 10.9741 6.75348Z" fill="#99A2AA"/>
</g>
<defs>
<clipPath id="clip0_35_884">
<rect width="20" height="20" fill="white"/>
</clipPath>
</defs>
</svg>
