<svg width="20" height="20" viewBox="0 0 20 20" fill="none" xmlns="http://www.w3.org/2000/svg">
<path d="M18.9789 5.31361C18.7628 4.51035 18.1295 3.87715 17.3264 3.66086C15.8591 3.2594 9.99 3.2594 9.99 3.2594C9.99 3.2594 4.12113 3.2594 2.65388 3.64564C1.86619 3.8617 1.21742 4.51047 1.00136 5.31361C0.615234 6.78075 0.615234 9.82339 0.615234 9.82339C0.615234 9.82339 0.615234 12.8814 1.00136 14.3332C1.21765 15.1363 1.85074 15.7695 2.654 15.9858C4.13658 16.3874 9.99023 16.3874 9.99023 16.3874C9.99023 16.3874 15.8591 16.3874 17.3264 16.0011C18.1296 15.785 18.7628 15.1518 18.9791 14.3486C19.3651 12.8814 19.3651 9.83884 19.3651 9.83884C19.3651 9.83884 19.3806 6.78075 18.9789 5.31361ZM8.12141 12.6343V7.01249L13.0019 9.82339L8.12141 12.6343Z" fill="#99A2AA"/>
</svg>
